<?xml version="1.0" standalone="no"?>
<!DOCTYPE svg PUBLIC "-//W3C//DTD SVG 20010904//EN"
 "http://www.w3.org/TR/2001/REC-SVG-20010904/DTD/svg10.dtd">
<svg version="1.0" xmlns="http://www.w3.org/2000/svg"
 width="512.000000pt" height="512.000000pt" viewBox="0 0 512.000000 512.000000"
 preserveAspectRatio="xMidYMid meet">
<metadata>
Created by potrace 1.14, written by Peter Selinger 2001-2017
</metadata>
<g transform="translate(0.000000,512.000000) scale(0.100000,-0.100000)"
fill="#000000" stroke="none">
<path d="M1955 4537 c-177 -67 -378 -219 -620 -468 -75 -77 -166 -160 -215
-194 -105 -75 -267 -235 -341 -341 -129 -181 -216 -369 -269 -579 -42 -167
-53 -281 -47 -483 6 -188 24 -299 73 -448 40 -125 146 -329 223 -432 l70 -93
-277 3 c-244 3 -284 1 -336 -15 -80 -25 -132 -62 -164 -116 -25 -43 -27 -54
-27 -161 1 -171 29 -242 115 -290 l45 -25 1965 -3 1965 -2 0 -108 c0 -96 2
-110 23 -139 36 -51 99 -83 163 -83 101 0 200 64 429 275 58 53 141 120 186
150 120 80 174 150 174 227 0 37 -32 95 -64 118 -11 8 -88 71 -171 140 -214
181 -316 253 -433 311 -95 47 -107 51 -150 44 -67 -10 -99 -30 -122 -76 -23
-43 -40 -163 -32 -217 l4 -32 -346 0 c-190 0 -346 3 -346 6 0 3 18 27 41 52
158 180 282 458 324 728 24 147 16 424 -15 569 -162 761 -767 1324 -1461 1362
l-117 6 -4 111 c-2 88 -7 118 -23 145 -45 76 -121 96 -220 58z m108 -117 c15
-30 17 -51 12 -140 -9 -140 -6 -143 112 -147 484 -17 955 -287 1240 -713 157
-234 242 -488 256 -762 l3 -68 -187 0 -186 0 -7 78 c-42 467 -439 929 -877
1018 -92 18 -256 15 -322 -7 l-38 -13 3 -112 c2 -97 0 -115 -15 -132 -46 -51
-91 -34 -202 74 -33 33 -119 98 -190 146 -232 156 -305 226 -305 292 0 44 20
69 98 120 37 24 123 94 192 156 277 248 369 295 413 210z m-805 -595 c11 -14
46 -47 79 -73 32 -26 64 -53 71 -60 8 -6 33 -26 58 -43 52 -35 99 -78 93 -83
-2 -2 -40 -28 -84 -57 -44 -30 -121 -94 -170 -144 -190 -189 -304 -421 -337
-682 l-12 -93 -188 0 -188 0 0 49 c0 108 32 287 76 421 77 238 217 462 401
642 70 69 163 147 175 148 4 0 15 -11 26 -25z m1097 -230 c234 -45 455 -181
592 -363 141 -187 206 -393 206 -652 0 -287 -82 -530 -251 -740 -195 -245
-501 -370 -825 -340 -284 27 -486 117 -663 294 -139 140 -225 295 -282 505
-22 85 -25 117 -26 271 -1 190 13 273 70 418 80 202 270 419 436 498 l36 17
55 -49 c150 -134 330 -190 418 -131 55 36 82 103 83 208 l1 88 40 -5 c22 -3
72 -12 110 -19z m-1560 -1065 l162 0 7 -72 c20 -200 80 -369 193 -540 95 -144
272 -303 425 -382 l70 -36 -330 0 -330 0 -42 48 c-102 115 -212 308 -279 488
-62 169 -112 475 -80 495 8 5 20 7 27 4 8 -3 87 -5 177 -5z m2889 -37 c-8
-285 -103 -574 -272 -828 -145 -218 -343 -393 -577 -509 -110 -55 -285 -119
-314 -114 -9 1 -25 -3 -36 -9 -35 -19 -94 -26 -109 -13 -12 9 -20 8 -38 -4
-13 -8 -49 -18 -81 -22 -56 -7 -57 -6 -57 19 0 15 9 32 23 42 17 12 19 17 8
24 -7 5 -11 14 -7 20 5 7 1 9 -8 5 -14 -5 -16 9 -16 108 0 114 0 115 26 127
30 13 27 35 -4 39 -12 2 -22 9 -22 16 0 9 30 17 95 26 296 37 544 180 753 435
148 179 231 378 257 618 l6 57 187 0 187 0 -1 -37z m661 -772 c3 -6 -3 -15
-14 -20 -29 -16 -33 -14 -19 9 14 22 24 25 33 11z m146 -117 c38 -31 68 -58
67 -59 -2 -2 -395 -230 -590 -342 -5 -2 -8 -2 -8 0 0 4 182 168 258 232 17 15
22 30 22 70 l0 50 88 52 c48 29 88 52 90 52 2 1 34 -24 73 -55z m179 -139 c0
-3 -201 -120 -245 -143 -22 -11 14 19 109 91 81 61 103 74 118 66 10 -5 18
-11 18 -14z m-4108 -63 c-12 -9 -55 -35 -95 -56 l-72 -39 35 38 c47 50 88 75
125 75 l30 0 -23 -18z m292 10 c-13 -12 -292 -172 -299 -172 -3 0 40 40 97 90
102 88 103 89 157 90 30 0 51 -4 45 -8z m230 -1 c5 -7 -140 -99 -224 -141 -33
-17 -30 -14 80 74 87 70 130 90 144 67z m236 -14 c-16 -15 -208 -127 -217
-127 -3 0 34 32 82 70 66 53 95 70 118 70 27 0 29 -2 17 -13z m2143 -17 c-67
-38 -77 -38 -27 0 21 16 48 30 59 30 13 0 1 -11 -32 -30z m-1833 13 c0 -7
-147 -94 -304 -182 l-61 -33 75 68 c41 38 95 88 120 111 43 41 48 43 108 43
34 0 62 -3 62 -7z m2136 -2 c-7 -11 -306 -184 -311 -180 -1 2 45 45 104 96
105 91 107 92 159 93 29 0 51 -4 48 -9z m1008 -6 c-1 -11 -183 -119 -189 -113
-2 2 31 31 73 66 70 56 119 76 116 47z m-2934 -68 c-69 -40 -152 -88 -185
-106 l-60 -32 110 105 110 106 75 0 74 0 -124 -73z m2125 60 c-40 -27 -120
-69 -110 -59 26 29 92 71 110 72 19 0 19 0 0 -13z m-1895 -61 c0 -8 -21 -26
-47 -40 l-48 -26 45 40 c51 45 50 45 50 26z m2812 -13 c10 -9 18 -20 18 -24 0
-4 -53 -37 -117 -74 -65 -37 -134 -77 -153 -88 l-35 -20 20 21 c25 26 238 202
244 202 2 0 13 -7 23 -17z m-4722 -98 c-7 -9 -15 -13 -19 -10 -3 3 1 10 9 15
21 14 24 12 10 -5z m969 -38 c-26 -23 -81 -73 -122 -110 l-75 -68 -68 3 -68 3
185 107 c101 59 186 107 189 107 3 0 -16 -19 -41 -42z m304 -20 c-38 -35 -91
-84 -120 -111 l-51 -47 -73 3 -73 3 185 107 c101 59 187 107 192 107 4 1 -23
-27 -60 -62z m2362 24 c-11 -10 -62 -55 -113 -100 l-93 -81 -61 0 c-34 0 -59
3 -55 6 11 11 322 192 332 193 5 1 1 -8 -10 -18z m1145 4 c0 -20 -24 -39 -101
-82 -75 -42 -72 -37 24 39 84 66 77 62 77 43z m-1660 1 c0 -3 -47 -46 -105
-96 l-105 -91 -57 3 -58 3 160 92 c167 97 165 96 165 89z m-3015 -72 c-70 -61
-95 -71 -95 -39 0 12 144 104 163 105 4 0 -26 -30 -68 -66z m3805 62 c0 -3
-50 -43 -111 -90 -98 -75 -117 -86 -152 -86 -22 0 -38 2 -35 5 4 4 289 172
296 174 1 1 2 -1 2 -3z m-2118 -53 c-22 -27 -58 -65 -80 -86 -38 -37 -40 -38
-105 -35 l-67 3 143 82 c78 46 144 83 145 83 2 0 -14 -21 -36 -47z m2323 19
c-6 -5 -47 -39 -92 -76 -75 -61 -86 -67 -122 -64 l-40 3 122 72 c109 64 159
88 132 65z m-3816 -71 c-65 -54 -94 -71 -127 -77 -24 -3 -45 -5 -47 -3 -4 4
235 146 249 148 4 1 -29 -30 -75 -68z m1147 -2 c-77 -63 -90 -70 -123 -67 -37
3 -36 4 77 70 63 37 119 67 123 67 5 1 -30 -31 -77 -70z m-861 35 c-107 -89
-134 -105 -165 -102 -30 3 -24 8 77 65 59 34 110 62 113 62 3 0 -8 -11 -25
-25z m3612 -85 c-53 -44 -99 -81 -103 -82 -4 -1 -10 8 -15 20 -7 19 2 28 94
82 56 33 106 60 111 60 4 1 -35 -35 -87 -80z m-1016 20 c-31 -25 -59 -39 -72
-37 -16 2 -6 11 43 40 83 48 93 48 29 -3z m-526 -14 c-27 -22 -55 -32 -55 -20
0 4 70 44 80 45 3 0 -8 -11 -25 -25z m1585 -130 c0 -9 -162 -127 -167 -121
-14 13 11 37 84 79 85 50 83 49 83 42z m-60 -179 c0 -9 -61 -48 -67 -43 -3 3
10 15 28 26 36 22 39 23 39 17z"/>
<path d="M3155 1420 c-3 -6 1 -7 9 -4 18 7 21 14 7 14 -6 0 -13 -4 -16 -10z"/>
</g>
</svg>
